<svg width="322" height="686" viewBox="0 0 322 686" fill="none" xmlns="http://www.w3.org/2000/svg">
<path d="M192.406 157.188C191.785 157.188 191.189 156.941 190.749 156.501C190.309 156.061 190.062 155.465 190.062 154.844C190.062 154.222 190.309 153.626 190.749 153.186C191.189 152.747 191.785 152.5 192.406 152.5C193.028 152.5 193.624 152.747 194.064 153.186C194.503 153.626 194.75 154.222 194.75 154.844C194.75 155.465 194.503 156.061 194.064 156.501C193.624 156.941 193.028 157.188 192.406 157.188ZM192.406 157.188V168.906C192.406 171.088 192.406 172.178 192.137 173.062C191.84 174.046 191.303 174.942 190.577 175.669C189.85 176.396 188.955 176.933 187.972 177.231C187.084 177.5 185.994 177.5 183.812 177.5M134.594 197.812C135.215 197.812 135.811 198.059 136.251 198.499C136.691 198.939 136.937 199.535 136.937 200.156C136.937 200.778 136.691 201.374 136.251 201.814C135.811 202.253 135.215 202.5 134.594 202.5C133.972 202.5 133.376 202.253 132.936 201.814C132.497 201.374 132.25 200.778 132.25 200.156C132.25 199.535 132.497 198.939 132.936 198.499C133.376 198.059 133.972 197.812 134.594 197.812ZM134.594 197.812V186.094C134.594 183.912 134.594 182.822 134.862 181.938C135.16 180.954 135.697 180.058 136.423 179.331C137.15 178.604 138.045 178.067 139.028 177.769C139.916 177.5 141.006 177.5 143.187 177.5M143.187 148.594C143.187 149.215 142.941 149.811 142.501 150.251C142.061 150.691 141.465 150.938 140.844 150.938C140.222 150.938 139.626 150.691 139.186 150.251C138.747 149.811 138.5 149.215 138.5 148.594C138.5 147.972 138.747 147.376 139.186 146.936C139.626 146.497 140.222 146.25 140.844 146.25C141.465 146.25 142.061 146.497 142.501 146.936C142.941 147.376 143.187 147.972 143.187 148.594ZM143.187 148.594H154.906C157.087 148.594 158.178 148.594 159.062 148.862C160.046 149.16 160.942 149.697 161.669 150.423C162.396 151.15 162.933 152.045 163.231 153.028C163.5 153.916 163.5 155.006 163.5 157.188M183.812 206.406C183.812 205.785 184.059 205.189 184.499 204.749C184.939 204.309 185.535 204.062 186.156 204.062C186.778 204.062 187.374 204.309 187.814 204.749C188.253 205.189 188.5 205.785 188.5 206.406C188.5 207.028 188.253 207.624 187.814 208.064C187.374 208.503 186.778 208.75 186.156 208.75C185.535 208.75 184.939 208.503 184.499 208.064C184.059 207.624 183.812 207.028 183.812 206.406ZM183.812 206.406H172.094C169.912 206.406 168.822 206.406 167.937 206.137C166.954 205.84 166.058 205.304 165.331 204.577C164.604 203.85 164.067 202.955 163.769 201.972C163.5 201.084 163.5 199.994 163.5 197.812" stroke="white" stroke-width="1.5" stroke-linecap="round" stroke-linejoin="round"/>
<path d="M143.341 177.347C143.341 167.772 143.341 162.984 146.316 160.009C149.291 157.034 154.078 157.034 163.653 157.034C173.228 157.034 178.016 157.034 180.991 160.009C183.966 162.984 183.966 167.772 183.966 177.347C183.966 186.922 183.966 191.709 180.991 194.684C178.016 197.659 173.228 197.659 163.653 197.659C154.078 197.659 149.291 197.659 146.316 194.684C143.341 191.709 143.341 186.922 143.341 177.347Z" stroke="white" stroke-width="1.5" stroke-linecap="round" stroke-linejoin="round"/>
<path d="M165.059 185.313L160.497 171.184C160.339 170.739 160.044 170.354 159.655 170.085C159.265 169.817 158.801 169.677 158.328 169.688C157.856 169.678 157.392 169.817 157.004 170.086C156.615 170.355 156.321 170.739 156.162 171.184L151.6 185.313M172.872 169.688V185.313M153.278 180.625H163.378" stroke="white" stroke-width="1.5" stroke-linecap="round" stroke-linejoin="round"/>
<path d="M183.186 474.15L181.536 473.33C180.298 472.715 179.267 472.1 178.442 471.073L175.346 467.998C172.871 465.74 169.363 464.921 166.267 465.946C164.204 466.56 161.936 466.56 159.873 465.946C156.984 464.51 153.684 465.125 151.413 467.177L147.7 471.075C146.669 471.894 145.638 472.715 144.607 473.33L142.955 474.15C140.067 475.588 138.417 478.869 138.83 482.153L140.521 490.863C139.083 491.639 137.908 492.824 137.145 494.269C136.381 495.713 136.064 497.352 136.233 498.977C136.401 500.602 137.049 502.14 138.093 503.397C139.137 504.654 140.53 505.573 142.097 506.037L142.513 511.482L142.515 511.511C143.227 519.344 149.229 524.937 156.918 524.937H169.266C176.726 524.937 182.955 519.365 183.666 511.511L183.67 511.463L184.037 505.998C185.587 505.51 186.958 504.576 187.98 503.313C189.001 502.049 189.626 500.513 189.778 498.895C189.929 497.278 189.6 495.652 188.831 494.221C188.063 492.79 186.889 491.617 185.456 490.851L187.106 482.357C187.725 478.869 186.075 475.588 183.186 474.15ZM179.886 482.419V483.586C179.886 484.605 180.306 485.622 180.921 486.408C181.057 487.483 181.083 488.586 180.997 489.716V489.737L180.847 491.944C180.813 492.436 180.958 492.924 181.254 493.319C181.55 493.715 181.978 493.99 182.46 494.097C183.421 494.313 184.273 494.865 184.863 495.654C185.452 496.443 185.74 497.418 185.674 498.4C185.608 499.383 185.193 500.31 184.503 501.014C183.813 501.717 182.895 502.15 181.913 502.236C181.421 502.277 180.961 502.493 180.615 502.845C180.269 503.197 180.061 503.661 180.028 504.154L179.558 511.162C179.026 516.908 174.556 520.812 169.266 520.812H156.916C151.438 520.812 147.152 516.925 146.624 511.152L146.087 504.141C146.049 503.646 145.834 503.181 145.48 502.832C145.126 502.483 144.659 502.274 144.163 502.242C143.171 502.178 142.236 501.759 141.528 501.06C140.821 500.362 140.39 499.432 140.314 498.441C140.238 497.45 140.522 496.464 141.114 495.666C141.707 494.868 142.568 494.311 143.538 494.097C144.023 493.99 144.453 493.711 144.749 493.312C145.045 492.913 145.187 492.42 145.149 491.925L144.982 489.737C144.924 488.768 144.951 487.795 145.064 486.831C146.063 486.01 146.463 484.799 146.463 483.588V481.856C147.091 480.491 147.902 479.219 148.874 478.073C151.568 477.455 156.437 476.613 163.173 476.613C169.689 476.613 174.457 477.403 177.202 478.011C178.33 479.325 179.238 480.814 179.886 482.419ZM159.485 503.685L161.527 497.147C161.987 495.702 164.029 495.702 164.468 497.147L166.51 503.685C166.605 503.997 166.626 504.327 166.57 504.649C166.514 504.97 166.383 505.274 166.189 505.535C165.994 505.797 165.741 506.009 165.449 506.155C165.158 506.301 164.836 506.376 164.51 506.375H161.486C161.159 506.378 160.836 506.305 160.543 506.159C160.251 506.014 159.996 505.802 159.801 505.539C159.606 505.277 159.476 504.973 159.421 504.65C159.366 504.328 159.388 503.998 159.485 503.685ZM162.998 510.285C161.146 510.297 159.319 509.864 157.67 509.021C157.145 508.753 156.577 509.347 156.909 509.826C157.576 510.829 158.482 511.652 159.545 512.22C160.608 512.787 161.795 513.082 163 513.078C164.205 513.082 165.392 512.787 166.454 512.219C167.517 511.652 168.422 510.829 169.088 509.826C169.418 509.328 168.853 508.753 168.327 509.021C166.678 509.863 164.851 510.296 163 510.283M172.195 492.76C174.698 492.76 176.815 494.493 177.407 496.817C177.445 496.974 177.446 497.137 177.412 497.294C177.377 497.451 177.307 497.598 177.207 497.724C177.107 497.85 176.98 497.951 176.834 498.02C176.689 498.09 176.53 498.125 176.369 498.123H174.719C174.86 497.612 174.882 497.076 174.781 496.555C174.68 496.035 174.461 495.545 174.139 495.124C173.817 494.703 173.403 494.362 172.927 494.128C172.452 493.894 171.928 493.773 171.398 493.775C170.948 493.773 170.501 493.86 170.084 494.032C169.667 494.204 169.289 494.457 168.97 494.777C168.652 495.096 168.401 495.476 168.23 495.894C168.06 496.311 167.975 496.758 167.979 497.209C167.979 497.534 168.02 497.838 168.103 498.123H167.795C167.666 498.124 167.537 498.096 167.42 498.042C167.302 497.987 167.197 497.908 167.114 497.808C167.03 497.709 166.97 497.593 166.936 497.468C166.903 497.342 166.898 497.211 166.921 497.083C167.162 495.863 167.82 494.764 168.782 493.976C169.744 493.187 170.951 492.757 172.195 492.76ZM148.593 496.819C148.891 495.636 149.584 494.588 150.556 493.85C151.528 493.112 152.722 492.726 153.943 492.757C155.163 492.788 156.337 493.233 157.271 494.019C158.205 494.805 158.843 495.886 159.081 497.083C159.105 497.211 159.099 497.343 159.066 497.469C159.033 497.594 158.972 497.711 158.888 497.811C158.805 497.91 158.7 497.99 158.582 498.044C158.463 498.099 158.335 498.126 158.205 498.125H157.899C157.982 497.84 158.022 497.536 158.021 497.211C158.021 495.301 156.495 493.777 154.599 493.777C154.07 493.776 153.547 493.897 153.071 494.131C152.596 494.365 152.182 494.706 151.86 495.127C151.539 495.548 151.319 496.038 151.219 496.558C151.118 497.078 151.139 497.614 151.281 498.125H149.631C149.47 498.127 149.311 498.092 149.166 498.023C149.02 497.953 148.893 497.852 148.793 497.726C148.693 497.6 148.623 497.453 148.588 497.296C148.554 497.139 148.555 496.976 148.593 496.819ZM169.425 497.211C169.424 496.826 169.539 496.449 169.755 496.128C169.843 496.355 170.064 496.516 170.32 496.516C170.451 496.515 170.578 496.472 170.683 496.394C170.788 496.316 170.865 496.207 170.904 496.082C170.943 495.957 170.941 495.823 170.899 495.699C170.857 495.575 170.777 495.468 170.67 495.392C171.042 495.246 171.449 495.218 171.837 495.31C172.225 495.402 172.576 495.612 172.842 495.909C173.107 496.207 173.276 496.579 173.324 496.975C173.372 497.371 173.297 497.772 173.11 498.125H169.652C169.506 497.842 169.429 497.529 169.425 497.211ZM154.599 495.26C154.936 495.259 155.268 495.346 155.562 495.511C155.855 495.676 156.101 495.914 156.276 496.203C156.45 496.491 156.547 496.82 156.557 497.156C156.567 497.493 156.489 497.827 156.332 498.125H152.869C152.725 497.842 152.649 497.529 152.646 497.211C152.646 496.857 152.741 496.522 152.908 496.236C152.979 496.348 153.085 496.434 153.21 496.48C153.334 496.526 153.47 496.531 153.597 496.492C153.725 496.454 153.836 496.375 153.914 496.268C153.992 496.16 154.033 496.03 154.03 495.897C154.03 495.808 154.011 495.719 153.974 495.638C153.936 495.556 153.882 495.484 153.814 495.425C154.061 495.317 154.329 495.26 154.599 495.26ZM148.216 490.991C148.564 491.408 149.062 491.671 149.603 491.722C150.144 491.774 150.683 491.611 151.103 491.267L151.118 491.257L151.132 491.244C151.492 490.997 151.879 490.792 152.285 490.632C153.426 490.188 154.665 490.06 155.872 490.261C156.406 490.333 156.947 490.193 157.379 489.871C157.812 489.549 158.101 489.071 158.185 488.539C158.269 488.006 158.142 487.462 157.829 487.023C157.517 486.583 157.046 486.283 156.515 486.187C154.58 485.872 152.595 486.083 150.769 486.798C150.208 487.02 149.667 487.291 149.152 487.608C148.948 487.737 148.749 487.875 148.556 488.021L148.511 488.06L148.492 488.072L148.486 488.079L148.482 488.083H148.48C148.271 488.256 148.099 488.469 147.973 488.709C147.847 488.949 147.769 489.212 147.745 489.482C147.72 489.752 147.749 490.024 147.83 490.283C147.911 490.542 148.042 490.783 148.216 490.991ZM177.312 488.083C177.731 488.434 177.993 488.938 178.041 489.483C178.089 490.028 177.919 490.569 177.567 490.989C177.216 491.408 176.712 491.671 176.167 491.718C175.622 491.766 175.081 491.596 174.661 491.244C174.301 490.997 173.915 490.792 173.508 490.632C172.368 490.188 171.129 490.06 169.922 490.261C169.388 490.333 168.846 490.193 168.414 489.871C167.982 489.549 167.693 489.071 167.609 488.539C167.525 488.006 167.652 487.462 167.964 487.023C168.276 486.583 168.748 486.283 169.278 486.187C171.214 485.872 173.198 486.083 175.024 486.798C175.713 487.07 176.258 487.369 176.641 487.608C176.846 487.737 177.045 487.875 177.237 488.021L177.283 488.06L177.301 488.072L177.308 488.079L177.312 488.083Z" fill="white"/>
<rect x="5.5" y="1.5" width="315" height="683" rx="24.5" stroke="black" stroke-width="3"/>
<rect y="131" width="4" height="35" rx="2" fill="black"/>
<rect x="124" y="11" width="79" height="21" rx="10.5" fill="black"/>
<rect x="113" y="261" width="100" height="100" fill="#D9D9D9"/>
<path d="M148.25 324H140.17V297.818H148.608C151.148 297.818 153.321 298.342 155.128 299.391C156.935 300.43 158.32 301.926 159.283 303.878C160.246 305.821 160.727 308.148 160.727 310.858C160.727 313.585 160.241 315.933 159.27 317.902C158.298 319.862 156.884 321.371 155.026 322.428C153.168 323.476 150.909 324 148.25 324ZM143.341 321.188H148.045C150.21 321.188 152.004 320.77 153.428 319.935C154.851 319.099 155.912 317.911 156.611 316.368C157.31 314.825 157.659 312.989 157.659 310.858C157.659 308.744 157.314 306.925 156.624 305.399C155.933 303.865 154.902 302.689 153.53 301.871C152.158 301.044 150.449 300.631 148.403 300.631H143.341V321.188ZM186.807 297.818V324H183.739L169.472 303.443H169.216V324H166.045V297.818H169.114L183.432 318.426H183.688V297.818H186.807Z" fill="black"/>
</svg>
