<svg width="322" height="686" viewBox="0 0 322 686" fill="none" xmlns="http://www.w3.org/2000/svg">
<g clip-path="url(#clip0_4_83)">
<path d="M125.891 385L118.392 420.302L83.1669 428.697L118.607 436.164L127.035 471.261L134.525 435.95L169.756 427.566L134.319 420.097L125.891 385ZM218.888 386.605L191.206 414.177L206.305 429.217L233.984 401.643L218.888 386.605ZM181.138 424.204L83 521.96L98.0974 537L196.236 439.244L181.137 424.204H181.138ZM211.568 441.711L207.563 460.572L188.739 465.064L207.673 469.051L212.173 487.802L216.176 468.941L235 464.449L216.066 460.462L211.568 441.711ZM180.691 475.983L176.277 496.782L155.525 501.719L176.399 506.116L181.362 526.793L185.776 505.994L206.528 501.051L185.657 496.652L180.691 475.983Z" fill="black"/>
</g>
<rect x="5.5" y="1.5" width="315" height="683" rx="24.5" stroke="black" stroke-width="3"/>
<rect x="5.5" y="1.5" width="315" height="683" rx="24.5" stroke="black" stroke-width="3"/>
<rect y="131" width="4" height="35" rx="2" fill="black"/>
<rect x="124" y="11" width="79" height="21" rx="10.5" fill="black"/>
<path d="M188.406 165.188C187.785 165.188 187.189 164.941 186.749 164.501C186.309 164.061 186.062 163.465 186.062 162.844C186.062 162.222 186.309 161.626 186.749 161.186C187.189 160.747 187.785 160.5 188.406 160.5C189.028 160.5 189.624 160.747 190.064 161.186C190.503 161.626 190.75 162.222 190.75 162.844C190.75 163.465 190.503 164.061 190.064 164.501C189.624 164.941 189.028 165.188 188.406 165.188ZM188.406 165.188V176.906C188.406 179.088 188.406 180.178 188.137 181.062C187.84 182.046 187.303 182.942 186.577 183.669C185.85 184.396 184.955 184.933 183.972 185.231C183.084 185.5 181.994 185.5 179.812 185.5M130.594 205.812C131.215 205.812 131.811 206.059 132.251 206.499C132.691 206.939 132.937 207.535 132.937 208.156C132.937 208.778 132.691 209.374 132.251 209.814C131.811 210.253 131.215 210.5 130.594 210.5C129.972 210.5 129.376 210.253 128.936 209.814C128.497 209.374 128.25 208.778 128.25 208.156C128.25 207.535 128.497 206.939 128.936 206.499C129.376 206.059 129.972 205.812 130.594 205.812ZM130.594 205.812V194.094C130.594 191.912 130.594 190.822 130.862 189.938C131.16 188.954 131.697 188.058 132.423 187.331C133.15 186.604 134.045 186.067 135.028 185.769C135.916 185.5 137.006 185.5 139.187 185.5M139.187 156.594C139.187 157.215 138.941 157.811 138.501 158.251C138.061 158.691 137.465 158.938 136.844 158.938C136.222 158.938 135.626 158.691 135.186 158.251C134.747 157.811 134.5 157.215 134.5 156.594C134.5 155.972 134.747 155.376 135.186 154.936C135.626 154.497 136.222 154.25 136.844 154.25C137.465 154.25 138.061 154.497 138.501 154.936C138.941 155.376 139.187 155.972 139.187 156.594ZM139.187 156.594H150.906C153.087 156.594 154.178 156.594 155.062 156.862C156.046 157.16 156.942 157.697 157.669 158.423C158.396 159.15 158.933 160.045 159.231 161.028C159.5 161.916 159.5 163.006 159.5 165.188M179.812 214.406C179.812 213.785 180.059 213.189 180.499 212.749C180.939 212.309 181.535 212.062 182.156 212.062C182.778 212.062 183.374 212.309 183.814 212.749C184.253 213.189 184.5 213.785 184.5 214.406C184.5 215.028 184.253 215.624 183.814 216.064C183.374 216.503 182.778 216.75 182.156 216.75C181.535 216.75 180.939 216.503 180.499 216.064C180.059 215.624 179.812 215.028 179.812 214.406ZM179.812 214.406H168.094C165.912 214.406 164.822 214.406 163.937 214.137C162.954 213.84 162.058 213.304 161.331 212.577C160.604 211.85 160.067 210.955 159.769 209.972C159.5 209.084 159.5 207.994 159.5 205.812" stroke="white" stroke-width="1.5" stroke-linecap="round" stroke-linejoin="round"/>
<path d="M139.341 185.347C139.341 175.772 139.341 170.984 142.316 168.009C145.291 165.034 150.078 165.034 159.653 165.034C169.228 165.034 174.016 165.034 176.991 168.009C179.966 170.984 179.966 175.772 179.966 185.347C179.966 194.922 179.966 199.709 176.991 202.684C174.016 205.659 169.228 205.659 159.653 205.659C150.078 205.659 145.291 205.659 142.316 202.684C139.341 199.709 139.341 194.922 139.341 185.347Z" stroke="white" stroke-width="1.5" stroke-linecap="round" stroke-linejoin="round"/>
<path d="M161.059 193.313L156.497 179.184C156.339 178.739 156.044 178.354 155.655 178.085C155.265 177.817 154.801 177.677 154.328 177.688C153.856 177.678 153.392 177.817 153.004 178.086C152.615 178.355 152.321 178.739 152.162 179.184L147.6 193.313M168.872 177.688V193.313M149.278 188.625H159.378" stroke="white" stroke-width="1.5" stroke-linecap="round" stroke-linejoin="round"/>
<path d="M255.186 165.15L253.536 164.33C252.298 163.715 251.267 163.1 250.442 162.073L247.346 158.998C244.871 156.74 241.363 155.921 238.267 156.946C236.204 157.56 233.936 157.56 231.873 156.946C228.984 155.51 225.684 156.125 223.413 158.177L219.7 162.075C218.669 162.894 217.638 163.715 216.607 164.33L214.955 165.15C212.067 166.588 210.417 169.869 210.83 173.153L212.521 181.863C211.083 182.639 209.908 183.824 209.145 185.269C208.381 186.713 208.064 188.352 208.233 189.977C208.401 191.602 209.049 193.14 210.093 194.397C211.137 195.654 212.53 196.573 214.097 197.037L214.513 202.482L214.515 202.511C215.227 210.344 221.229 215.937 228.918 215.937H241.266C248.726 215.937 254.955 210.365 255.666 202.511L255.67 202.463L256.037 196.998C257.587 196.51 258.958 195.576 259.98 194.313C261.001 193.049 261.626 191.513 261.778 189.895C261.929 188.278 261.6 186.652 260.831 185.221C260.063 183.79 258.889 182.617 257.456 181.851L259.106 173.357C259.725 169.869 258.075 166.588 255.186 165.15ZM251.886 173.419V174.586C251.886 175.605 252.306 176.622 252.921 177.408C253.057 178.483 253.083 179.586 252.997 180.716V180.737L252.847 182.944C252.813 183.436 252.958 183.924 253.254 184.319C253.55 184.715 253.978 184.99 254.46 185.097C255.421 185.313 256.273 185.865 256.863 186.654C257.452 187.443 257.74 188.418 257.674 189.4C257.608 190.383 257.193 191.31 256.503 192.014C255.813 192.717 254.895 193.15 253.913 193.236C253.421 193.277 252.961 193.493 252.615 193.845C252.269 194.197 252.061 194.661 252.028 195.154L251.558 202.162C251.026 207.908 246.556 211.812 241.266 211.812H228.916C223.438 211.812 219.152 207.925 218.624 202.152L218.087 195.141C218.049 194.646 217.834 194.181 217.48 193.832C217.126 193.483 216.659 193.274 216.163 193.242C215.171 193.178 214.236 192.759 213.528 192.06C212.821 191.362 212.39 190.432 212.314 189.441C212.238 188.45 212.522 187.464 213.114 186.666C213.707 185.868 214.568 185.311 215.538 185.097C216.023 184.99 216.453 184.711 216.749 184.312C217.045 183.913 217.187 183.42 217.149 182.925L216.982 180.737C216.924 179.768 216.951 178.795 217.064 177.831C218.063 177.01 218.463 175.799 218.463 174.588V172.856C219.091 171.491 219.902 170.219 220.874 169.073C223.568 168.455 228.437 167.613 235.173 167.613C241.689 167.613 246.457 168.403 249.202 169.011C250.33 170.325 251.238 171.814 251.886 173.419ZM231.485 194.685L233.527 188.147C233.987 186.702 236.029 186.702 236.468 188.147L238.51 194.685C238.605 194.997 238.626 195.327 238.57 195.649C238.514 195.97 238.383 196.274 238.189 196.535C237.994 196.797 237.741 197.009 237.449 197.155C237.158 197.301 236.836 197.376 236.51 197.375H233.486C233.159 197.378 232.836 197.305 232.543 197.159C232.251 197.014 231.996 196.802 231.801 196.539C231.606 196.277 231.476 195.973 231.421 195.65C231.366 195.328 231.388 194.998 231.485 194.685ZM234.998 201.285C233.146 201.297 231.319 200.864 229.67 200.021C229.145 199.753 228.577 200.347 228.909 200.826C229.576 201.829 230.482 202.652 231.545 203.22C232.608 203.787 233.795 204.082 235 204.078C236.205 204.082 237.392 203.787 238.454 203.219C239.517 202.652 240.422 201.829 241.088 200.826C241.418 200.328 240.853 199.753 240.327 200.021C238.678 200.863 236.851 201.296 235 201.283M244.195 183.76C246.698 183.76 248.815 185.493 249.407 187.817C249.445 187.974 249.446 188.137 249.412 188.294C249.377 188.451 249.307 188.598 249.207 188.724C249.107 188.85 248.98 188.951 248.834 189.02C248.689 189.09 248.53 189.125 248.369 189.123H246.719C246.86 188.612 246.882 188.076 246.781 187.555C246.68 187.035 246.461 186.545 246.139 186.124C245.817 185.703 245.403 185.362 244.927 185.128C244.452 184.894 243.928 184.773 243.398 184.775C242.948 184.773 242.501 184.86 242.084 185.032C241.667 185.204 241.289 185.457 240.97 185.777C240.652 186.096 240.401 186.476 240.23 186.894C240.06 187.311 239.975 187.758 239.979 188.209C239.979 188.534 240.02 188.838 240.103 189.123H239.795C239.666 189.124 239.537 189.096 239.42 189.042C239.302 188.987 239.197 188.908 239.114 188.808C239.03 188.709 238.97 188.593 238.936 188.468C238.903 188.342 238.898 188.211 238.921 188.083C239.162 186.863 239.82 185.764 240.782 184.976C241.744 184.187 242.951 183.757 244.195 183.76ZM220.593 187.819C220.891 186.636 221.584 185.588 222.556 184.85C223.528 184.112 224.722 183.726 225.943 183.757C227.163 183.788 228.337 184.233 229.271 185.019C230.205 185.805 230.843 186.886 231.081 188.083C231.105 188.211 231.099 188.343 231.066 188.469C231.033 188.594 230.972 188.711 230.888 188.811C230.805 188.91 230.7 188.99 230.582 189.044C230.463 189.099 230.335 189.126 230.205 189.125H229.899C229.982 188.84 230.022 188.536 230.021 188.211C230.021 186.301 228.495 184.777 226.599 184.777C226.07 184.776 225.547 184.897 225.071 185.131C224.596 185.365 224.182 185.706 223.86 186.127C223.539 186.548 223.319 187.038 223.219 187.558C223.118 188.078 223.139 188.614 223.281 189.125H221.631C221.47 189.127 221.311 189.092 221.166 189.023C221.02 188.953 220.893 188.852 220.793 188.726C220.693 188.6 220.623 188.453 220.588 188.296C220.554 188.139 220.555 187.976 220.593 187.819ZM241.425 188.211C241.424 187.826 241.539 187.449 241.755 187.128C241.843 187.355 242.064 187.516 242.32 187.516C242.451 187.515 242.578 187.472 242.683 187.394C242.788 187.316 242.865 187.207 242.904 187.082C242.943 186.957 242.941 186.823 242.899 186.699C242.857 186.575 242.777 186.468 242.67 186.392C243.042 186.246 243.449 186.218 243.837 186.31C244.225 186.402 244.576 186.612 244.842 186.909C245.107 187.207 245.276 187.579 245.324 187.975C245.372 188.371 245.297 188.772 245.11 189.125H241.652C241.506 188.842 241.429 188.529 241.425 188.211ZM226.599 186.26C226.936 186.259 227.268 186.346 227.562 186.511C227.855 186.676 228.101 186.914 228.276 187.203C228.45 187.491 228.547 187.82 228.557 188.156C228.567 188.493 228.489 188.827 228.332 189.125H224.869C224.725 188.842 224.649 188.529 224.646 188.211C224.646 187.857 224.741 187.522 224.908 187.236C224.979 187.348 225.085 187.434 225.21 187.48C225.334 187.526 225.47 187.531 225.597 187.492C225.725 187.454 225.836 187.375 225.914 187.268C225.992 187.16 226.033 187.03 226.03 186.897C226.03 186.808 226.011 186.719 225.974 186.638C225.936 186.556 225.882 186.484 225.814 186.425C226.061 186.317 226.329 186.26 226.599 186.26ZM220.216 181.991C220.564 182.408 221.062 182.671 221.603 182.722C222.144 182.774 222.683 182.611 223.103 182.267L223.118 182.257L223.132 182.244C223.492 181.997 223.879 181.792 224.285 181.632C225.426 181.188 226.665 181.06 227.872 181.261C228.406 181.333 228.947 181.193 229.379 180.871C229.812 180.549 230.101 180.071 230.185 179.539C230.269 179.006 230.142 178.462 229.829 178.023C229.517 177.583 229.046 177.283 228.515 177.187C226.58 176.872 224.595 177.083 222.769 177.798C222.208 178.02 221.667 178.291 221.152 178.608C220.948 178.737 220.749 178.875 220.556 179.021L220.511 179.06L220.492 179.072L220.486 179.079L220.482 179.083H220.48C220.271 179.256 220.099 179.469 219.973 179.709C219.847 179.949 219.769 180.212 219.745 180.482C219.72 180.752 219.749 181.024 219.83 181.283C219.911 181.542 220.042 181.783 220.216 181.991ZM249.312 179.083C249.731 179.434 249.993 179.938 250.041 180.483C250.089 181.028 249.919 181.569 249.567 181.989C249.216 182.408 248.712 182.671 248.167 182.718C247.622 182.766 247.081 182.596 246.661 182.244C246.301 181.997 245.915 181.792 245.508 181.632C244.368 181.188 243.129 181.06 241.922 181.261C241.388 181.333 240.846 181.193 240.414 180.871C239.982 180.549 239.693 180.071 239.609 179.539C239.525 179.006 239.652 178.462 239.964 178.023C240.276 177.583 240.748 177.283 241.278 177.187C243.214 176.872 245.198 177.083 247.024 177.798C247.713 178.07 248.258 178.369 248.641 178.608C248.846 178.737 249.045 178.875 249.237 179.021L249.283 179.06L249.301 179.072L249.308 179.079L249.312 179.083Z" fill="white"/>
<path d="M58 160H108V210H58V160Z" fill="#D9D9D9"/>
<path d="M75.625 191.5H71.5852V178.409H75.804C77.0739 178.409 78.1605 178.671 79.0639 179.195C79.9673 179.715 80.6598 180.463 81.1413 181.439C81.6229 182.411 81.8636 183.574 81.8636 184.929C81.8636 186.293 81.6207 187.467 81.1349 188.451C80.6491 189.431 79.9418 190.185 79.0128 190.714C78.0838 191.238 76.9545 191.5 75.625 191.5ZM73.1705 190.094H75.5227C76.6051 190.094 77.5021 189.885 78.2138 189.467C78.9254 189.05 79.456 188.455 79.8054 187.684C80.1548 186.913 80.3295 185.994 80.3295 184.929C80.3295 183.872 80.157 182.962 79.8118 182.2C79.4666 181.433 78.951 180.844 78.2649 180.435C77.5788 180.022 76.7244 179.815 75.7017 179.815H73.1705V190.094Z" fill="black"/>
<path d="M94.9034 178.409V191.5H93.3693L86.2358 181.222H86.108V191.5H84.5227V178.409H86.0568L93.2159 188.713H93.3438V178.409H94.9034Z" fill="black"/>
<defs>
<clipPath id="clip0_4_83">
<rect width="152" height="152" fill="white" transform="translate(83 385)"/>
</clipPath>
</defs>
</svg>
