<svg width="322" height="686" viewBox="0 0 322 686" fill="none" xmlns="http://www.w3.org/2000/svg">
<path d="M129.542 610.417H197.458" stroke="white" stroke-width="1.5" stroke-linecap="round" stroke-linejoin="round"/>
<path d="M95.5834 576.458V488.167C95.5834 484.564 97.0145 481.109 99.5618 478.562C102.109 476.014 105.564 474.583 109.167 474.583H217.833C221.436 474.583 224.891 476.014 227.438 478.562C229.986 481.109 231.417 484.564 231.417 488.167V576.458C231.417 580.061 229.986 583.516 227.438 586.063C224.891 588.611 221.436 590.042 217.833 590.042H109.167C105.564 590.042 102.109 588.611 99.5618 586.063C97.0145 583.516 95.5834 580.061 95.5834 576.458Z" stroke="white" stroke-width="1.5"/>
<path d="M143.125 532.312L156.708 545.896L183.875 518.729" stroke="white" stroke-width="1.5" stroke-linecap="round" stroke-linejoin="round"/>
<rect x="108.905" y="99.5" width="108.717" height="238" rx="10.5" stroke="black" stroke-width="3"/>
<rect x="108.905" y="99.5" width="108.717" height="238" rx="4.5" stroke="black" stroke-width="3"/>
<rect x="106" y="144.022" width="1.40525" height="12.2959" rx="0.702624" fill="black"/>
<rect x="149.563" y="101.864" width="27.7536" height="7.37755" rx="3.68878" fill="black"/>
<rect x="5.5" y="1.5" width="315" height="683" rx="24.5" stroke="black" stroke-width="3"/>
<rect x="5.5" y="1.5" width="315" height="683" rx="24.5" stroke="black" stroke-width="3"/>
<rect y="131" width="4" height="35" rx="2" fill="black"/>
<rect x="124" y="11" width="79" height="21" rx="10.5" fill="black"/>
<path d="M138 148H188V198H138V148Z" fill="#D9D9D9"/>
<path d="M155.625 179.5H151.585V166.409H155.804C157.074 166.409 158.161 166.671 159.064 167.195C159.967 167.715 160.66 168.463 161.141 169.439C161.623 170.411 161.864 171.574 161.864 172.929C161.864 174.293 161.621 175.467 161.135 176.451C160.649 177.431 159.942 178.185 159.013 178.714C158.084 179.238 156.955 179.5 155.625 179.5ZM153.17 178.094H155.523C156.605 178.094 157.502 177.885 158.214 177.467C158.925 177.05 159.456 176.455 159.805 175.684C160.155 174.913 160.33 173.994 160.33 172.929C160.33 171.872 160.157 170.962 159.812 170.2C159.467 169.433 158.951 168.844 158.265 168.435C157.579 168.022 156.724 167.815 155.702 167.815H153.17V178.094Z" fill="black"/>
<path d="M174.903 166.409V179.5H173.369L166.236 169.222H166.108V179.5H164.523V166.409H166.057L173.216 176.713H173.344V166.409H174.903Z" fill="black"/>
<path d="M162.293 461.707C162.683 462.098 163.317 462.098 163.707 461.707L170.071 455.343C170.462 454.953 170.462 454.319 170.071 453.929C169.681 453.538 169.047 453.538 168.657 453.929L163 459.586L157.343 453.929C156.953 453.538 156.319 453.538 155.929 453.929C155.538 454.319 155.538 454.953 155.929 455.343L162.293 461.707ZM162 349L162 461L164 461L164 349L162 349Z" fill="white"/>
</svg>
